<svg width="225" height="81" viewBox="0 0 225 81" fill="none" xmlns="http://www.w3.org/2000/svg">
<path d="M19.3929 0C8.68399 0 0 8.0718 0 18.0294C0 23.4977 2.6186 28.3961 6.75354 31.7019C8.98038 33.4819 11.6462 34.8004 14.5801 35.4967C14.6188 35.5061 14.6575 35.5147 14.697 35.5242C15.0148 35.5981 15.3362 35.6643 15.6609 35.7227C16.8688 35.9419 18.1163 36.0562 19.3929 36.0562C20.6696 36.0562 21.917 35.9419 23.1249 35.7227C23.4892 35.6565 23.8492 35.5817 24.2057 35.4967C24.2109 35.4958 24.216 35.4941 24.2212 35.4932C27.1491 34.7961 29.8098 33.4794 32.0323 31.701C36.1672 28.3961 38.7858 23.4977 38.7858 18.0294C38.7858 8.0718 30.1019 0 19.3929 0ZM23.6404 24.114C22.9188 24.9692 21.9557 25.5468 20.7512 25.8459V27.9036H18.88V25.9052C17.4831 25.6938 16.4161 25.2451 15.6807 24.5626C14.9478 23.8793 14.4049 22.8264 14.0561 21.4004L16.4092 20.9432C16.7288 21.9497 17.1223 22.67 17.5862 23.0997C18.069 23.5114 18.7151 23.716 19.5218 23.716C20.3285 23.716 20.9625 23.4814 21.4892 23.0103C22.0107 22.5479 22.271 21.948 22.271 21.2122C22.271 20.5538 22.0528 20.0278 21.618 19.6298C21.3972 19.4364 21.0708 19.2207 20.6386 18.9792C20.2065 18.7376 19.6575 18.4729 18.9857 18.1875C17.6025 17.6108 16.6944 17.0822 16.258 16.5966C15.5655 15.8746 15.221 15.0099 15.221 13.9999C15.221 13.5246 15.3035 13.0802 15.4667 12.6685C15.63 12.2568 15.8697 11.8846 16.1772 11.5486C16.4874 11.2151 16.8714 10.9254 17.3285 10.6796C17.7838 10.4338 18.301 10.243 18.88 10.102V8.15259H20.7512V10.102C21.5923 10.2292 22.2821 10.4862 22.8157 10.8773C23.3509 11.2709 23.8612 11.8683 24.3466 12.678L22.2589 13.7636C21.6318 12.7012 20.8113 12.1717 19.8001 12.1717C19.1721 12.1717 18.6506 12.3445 18.2365 12.6892C17.8233 13.0321 17.6163 13.4645 17.6163 13.9819C17.6163 14.4512 17.7838 14.844 18.1197 15.1543C18.4479 15.4603 19.1103 15.8213 20.1103 16.2381C20.972 16.6034 21.6851 16.9464 22.2504 17.2679C22.8131 17.5902 23.2358 17.9005 23.521 18.197C24.3277 19.0067 24.7306 19.984 24.7306 21.1314C24.7306 22.2789 24.3672 23.2536 23.6404 24.114Z" fill="#F6D738"/>
<path d="M35.8297 17.2403C35.8228 17.1097 35.8142 16.9808 35.8022 16.8518C35.791 16.6954 35.7747 16.539 35.7566 16.3825C35.7309 16.1642 35.7016 15.9468 35.6673 15.7319C35.6527 15.6416 35.6372 15.5505 35.6209 15.4603V15.456C35.5633 15.1526 35.4989 14.8509 35.4259 14.5543C35.3889 14.4031 35.3494 14.2509 35.3056 14.1039C35.2549 13.9243 35.2008 13.7455 35.1424 13.5685C33.9645 9.96876 31.3983 6.93206 28.022 4.99727C25.5116 3.55757 22.558 2.72726 19.393 2.72726C10.3043 2.72726 2.93567 9.57768 2.93567 18.0294C2.93567 23.6077 6.14792 28.4889 10.9461 31.1621C13.4152 32.5382 16.3053 33.3289 19.393 33.3289C22.4807 33.3289 25.3707 32.5382 27.8398 31.1621C32.1982 28.7339 35.248 24.4836 35.7704 19.5439C35.7833 19.421 35.7944 19.298 35.8047 19.1743C35.8142 19.0505 35.8228 18.9242 35.8297 18.7969C35.8434 18.5374 35.8511 18.2752 35.8511 18.0105C35.8511 17.7457 35.8434 17.4956 35.8297 17.2403ZM23.6405 24.114C22.9188 24.9692 21.9557 25.5468 20.7512 25.8459V27.9036H18.8801V25.9052C17.4831 25.6938 16.4161 25.2451 15.6807 24.5626C14.9479 23.8793 14.4049 22.8264 14.0561 21.4004L16.4093 20.9432C16.7288 21.9497 17.1223 22.67 17.5862 23.0997C18.0691 23.5114 18.7151 23.716 19.5218 23.716C20.3286 23.716 20.9626 23.4813 21.4892 23.0103C22.0107 22.5479 22.271 21.948 22.271 21.2122C22.271 20.5538 22.0528 20.0278 21.6181 19.6298C21.3973 19.4364 21.0708 19.2207 20.6387 18.9792C20.2066 18.7376 19.6576 18.4729 18.9858 18.1875C17.6026 17.6108 16.6945 17.0822 16.258 16.5966C15.5656 15.8746 15.2211 15.0099 15.2211 13.9999C15.2211 13.5246 15.3036 13.0802 15.4668 12.6685C15.63 12.2568 15.8697 11.8846 16.1773 11.5486C16.4874 11.2151 16.8715 10.9254 17.3285 10.6796C17.7838 10.4338 18.301 10.2429 18.8801 10.102V8.15259H20.7512V10.102C21.5923 10.2292 22.2822 10.4862 22.8157 10.8773C23.3509 11.2709 23.8613 11.8683 24.3467 12.678L22.259 13.7636C21.6318 12.7012 20.8114 12.1717 19.8002 12.1717C19.1722 12.1717 18.6507 12.3445 18.2366 12.6892C17.8234 13.0321 17.6163 13.4644 17.6163 13.9819C17.6163 14.4512 17.7838 14.844 18.1198 15.1543C18.4479 15.4603 19.1103 15.8213 20.1103 16.2381C20.972 16.6034 21.6851 16.9464 22.2504 17.2678C22.8131 17.5902 23.2358 17.9005 23.521 18.197C24.3278 19.0067 24.7307 19.9839 24.7307 21.1314C24.7307 22.2789 24.3673 23.2536 23.6405 24.114Z" fill="#F3CC30"/>
<path d="M24.7307 21.1314C24.7307 22.2583 24.3673 23.2536 23.6404 24.114C22.9188 24.9692 21.9557 25.5468 20.7512 25.8459V27.9036H18.8801V25.9052C17.4831 25.6938 16.4161 25.2451 15.6807 24.5627C14.9479 23.8793 14.4049 22.8264 14.0561 21.4005L16.4092 20.9432C16.7288 21.9497 17.1223 22.67 17.5862 23.0998C18.069 23.5115 18.7151 23.716 19.5218 23.716C20.3285 23.716 20.9626 23.4814 21.4892 23.0104C22.0107 22.5479 22.271 21.948 22.271 21.2122C22.271 20.5538 22.0528 20.0278 21.6181 19.6299C21.3973 19.4365 21.0708 19.2207 20.6387 18.9792C20.2065 18.7377 19.6576 18.4729 18.9857 18.1876C17.6025 17.6108 16.6944 17.0822 16.258 16.5966C15.5656 15.8746 15.2211 15.0099 15.2211 14C15.2211 13.5246 15.3035 13.0803 15.4668 12.6686C15.63 12.2568 15.8697 11.8847 16.1773 11.5486C16.4874 11.2151 16.8714 10.9254 17.3285 10.6796C17.7838 10.4338 18.301 10.243 18.8801 10.102V8.15262H20.7512V10.102C21.5923 10.2292 22.2822 10.4862 22.8157 10.8773C23.3509 11.271 23.8612 11.8683 24.3466 12.678L22.259 13.7636C21.6318 12.7012 20.8114 12.1718 19.8002 12.1718C19.1722 12.1718 18.6507 12.3445 18.2366 12.6892C17.8233 13.0321 17.6163 13.4645 17.6163 13.9819C17.6163 14.4512 17.7838 14.844 18.1197 15.1543C18.4479 15.4603 19.1103 15.8213 20.1103 16.2382C20.972 16.6035 21.6851 16.9464 22.2504 17.2679C22.8131 17.5902 23.2358 17.9005 23.521 18.197C24.3277 19.0067 24.7307 19.984 24.7307 21.1314Z" fill="#1464DF"/>
<path d="M35.8512 18.0105C35.8512 18.2752 35.8435 18.5374 35.8298 18.7969C35.8229 18.9241 35.8143 19.0505 35.8048 19.1743C35.7945 19.298 35.7834 19.4209 35.7705 19.5439C35.2404 24.4896 32.1776 28.7408 27.8064 31.1621C25.3442 32.527 22.467 33.31 19.3931 33.31C16.3191 33.31 13.4402 32.5261 10.978 31.1621C8.77521 29.9415 6.9049 28.256 5.52344 26.2524C8.02863 27.6853 10.978 28.5113 14.1344 28.5113C15.7848 28.5113 17.3776 28.2852 18.8802 27.8649V27.9036H20.7513V27.2229C26.5461 24.8566 30.5917 19.4734 30.5917 13.2117C30.5917 11.8958 30.4147 10.622 30.0771 9.40319C30.0771 9.40319 30.0762 9.40147 30.0762 9.40061C30.0118 9.15994 29.9388 8.92615 29.8606 8.69064V8.6872C29.4242 7.37385 28.8013 6.13527 28.0221 4.99726C28.0152 4.98781 28.01 4.97835 28.0032 4.96976C31.3915 6.90713 33.968 9.955 35.1425 13.5684C35.2009 13.7455 35.255 13.9243 35.3057 14.1039C35.3495 14.2509 35.389 14.403 35.426 14.5543C35.5016 14.8509 35.566 15.1525 35.621 15.456V15.4603C35.6373 15.5505 35.6528 15.6416 35.6674 15.7319C35.7026 15.9476 35.7327 16.1642 35.7567 16.3825C35.7748 16.539 35.7911 16.6954 35.8023 16.8518C35.8143 16.9808 35.8229 17.1097 35.8298 17.2403C35.8435 17.4956 35.8512 17.7535 35.8512 18.0105Z" fill="#EDBD31"/>
<path d="M5.81796 19.4287C5.81796 11.9698 12.3224 5.92215 20.3457 5.92215C25.0356 5.92215 29.2058 7.98845 31.8613 11.1953C29.3527 7.14612 24.6507 4.42056 19.264 4.42056C11.2407 4.42056 4.73633 10.4673 4.73633 17.9271C4.73633 21.0266 5.86006 23.8811 7.7484 26.1605C6.52072 24.1785 5.81796 21.8801 5.81796 19.4287Z" fill="#F7DB5E"/>
<path d="M8.5105 53.1023V57.448C8.5105 59.8074 9.12906 62.1204 10.2983 64.1326L19.3749 79.7544L28.4756 64.1652C29.6526 62.1479 30.2763 59.8263 30.2763 57.4583V53.0997L8.51136 53.1031L8.5105 53.1023Z" fill="white"/>
<path d="M19.4083 69.937C17.471 69.9352 15.6265 70.3547 13.9512 71.1111V71.4618L19.3834 80.8108L24.8336 71.4738V71.1093C23.1678 70.3573 21.3345 69.9387 19.4083 69.937Z" fill="#07293E"/>
<path d="M11.9392 60.0258C13.9917 60.0189 15.6661 58.244 15.6601 56.0797C15.6661 58.2432 17.3508 60.0086 19.4033 60.0017C21.4557 59.9949 23.1301 58.2191 23.1241 56.0557C23.1301 58.2191 24.8149 59.9846 26.8673 59.9777C28.9198 59.9708 30.5942 58.195 30.5882 56.0316L30.5899 35.4726L23.125 35.4967L15.6601 35.5208L8.1952 35.5448L8.19348 56.1038C8.1995 58.2672 9.88423 60.0327 11.9367 60.0258H11.9392Z" fill="#07293E"/>
<path d="M15.6592 56.0797C15.6652 58.2431 17.3499 60.0085 19.4024 60.0017C21.4548 59.9948 23.1292 58.219 23.1232 56.0556C23.1292 58.219 23.1249 35.4966 23.1249 35.4966L15.66 35.5207C15.66 35.5207 15.6652 58.2431 15.6583 56.0797H15.6592Z" fill="#FFC301"/>
<path d="M30.7342 35.4907C31.839 35.4589 32.7351 34.5014 32.7351 33.329C32.7351 32.1566 31.8098 31.1613 30.6783 31.1613H8.10752C6.97605 31.1613 6.05078 32.1368 6.05078 33.329C6.05078 34.5211 6.97605 35.4967 8.10752 35.4967H30.6783C30.6972 35.4967 30.7153 35.4915 30.7342 35.4907Z" fill="white"/>
<path d="M42.8186 52.0811V37.3811H47.7746V48.2381H54.4106V52.0811H42.8186ZM60.6516 48.3431H68.0016V52.0811H55.7796V37.3811H67.7286V41.1191H60.6516V42.8411H66.8676V46.4111H60.6516V48.3431ZM80.9135 52.0811L79.9265 49.5191H74.3405L73.3535 52.0811H68.3135L74.7395 37.3811H79.6115L86.0375 52.0811H80.9135ZM75.7055 45.9491H78.5615L77.1335 42.2531L75.7055 45.9491ZM95.6274 52.0811L93.1284 48.3851H91.7844V52.0811H86.8284V37.3811H93.9054C98.0004 37.3811 100.604 39.5231 100.604 42.9251C100.604 45.0461 99.5964 46.6421 97.8324 47.5451L100.919 52.0811H95.6274ZM95.6064 42.9251C95.6064 41.8541 94.9554 41.2031 93.5904 41.2031H91.7844V44.6471H93.5904C94.9554 44.6471 95.6064 43.9961 95.6064 42.9251ZM112.136 37.3811H116.966V52.0811H112.892L107.306 45.4031V52.0811H102.476V37.3811H106.55L112.136 44.0591V37.3811ZM125.57 48.2381H130.526V52.0811H118.745V49.0361L124.058 44.1221C125.066 43.1771 125.213 42.6101 125.213 42.1061C125.213 41.3921 124.73 40.9511 123.785 40.9511C122.903 40.9511 122.063 41.4341 121.622 42.3161L117.884 40.4471C118.955 38.4311 121.076 37.0451 124.247 37.0451C127.733 37.0451 130.19 38.8511 130.19 41.6441C130.19 43.0931 129.812 44.3951 127.67 46.3271L125.57 48.2381ZM137.002 48.3431H144.352V52.0811H132.13V37.3811H144.079V41.1191H137.002V42.8411H143.218V46.4111H137.002V48.3431ZM157.264 52.0811L156.277 49.5191H150.691L149.704 52.0811H144.664L151.09 37.3811H155.962L162.388 52.0811H157.264ZM152.056 45.9491H154.912L153.484 42.2531L152.056 45.9491ZM171.978 52.0811L169.479 48.3851H168.135V52.0811H163.179V37.3811H170.256C174.351 37.3811 176.955 39.5231 176.955 42.9251C176.955 45.0461 175.947 46.6421 174.183 47.5451L177.27 52.0811H171.978ZM171.957 42.9251C171.957 41.8541 171.306 41.2031 169.941 41.2031H168.135V44.6471H169.941C171.306 44.6471 171.957 43.9961 171.957 42.9251ZM188.486 37.3811H193.316V52.0811H189.242L183.656 45.4031V52.0811H178.826V37.3811H182.9L188.486 44.0591V37.3811Z" fill="#1464DF"/>
<path d="M41.9416 65.1622C41.7216 65.1622 41.5716 64.9922 41.6116 64.7822L42.7416 58.5422C42.7816 58.3322 42.9916 58.1522 43.2016 58.1522H49.1016C49.2316 58.1522 49.3216 58.2622 49.2916 58.3922L49.0616 59.7122C49.0316 59.8422 48.9116 59.9422 48.7816 59.9422H44.6816C44.6416 59.9422 44.5916 59.9822 44.5916 60.0222L44.4616 60.7422C44.4516 60.7822 44.4816 60.8222 44.5216 60.8222H47.8216C47.9516 60.8222 48.0316 60.9222 48.0116 61.0522L47.7916 62.2722C47.7716 62.3922 47.6416 62.5022 47.5116 62.5022H44.2216C44.1716 62.5022 44.1316 62.5322 44.1216 62.5822L44.0016 63.2522C43.9916 63.2922 44.0216 63.3322 44.0716 63.3322H48.1616C48.3016 63.3322 48.3816 63.4322 48.3616 63.5622L48.1116 64.9322C48.0916 65.0622 47.9716 65.1622 47.8316 65.1622H41.9416ZM49.3928 65.1622C49.1728 65.1622 49.0228 64.9922 49.0628 64.7822L50.1928 58.5322C50.2328 58.3222 50.4428 58.1422 50.6628 58.1422H55.3528C56.3728 58.1422 57.0628 58.9622 56.8728 59.9722L56.2628 63.3422C56.0828 64.3522 55.1028 65.1622 54.0828 65.1622H49.3928ZM52.0128 60.1822L51.4928 63.1022C51.4628 63.2322 51.5528 63.3322 51.6828 63.3322H53.9128C54.0428 63.3322 54.1628 63.2322 54.1928 63.1022L54.7128 60.1822C54.7428 60.0622 54.6528 59.9522 54.5228 59.9522H52.2928C52.1628 59.9522 52.0328 60.0622 52.0128 60.1822ZM65.102 58.1522C65.322 58.1522 65.472 58.3222 65.432 58.5422L64.562 63.3422C64.382 64.3522 63.402 65.1722 62.372 65.1722L62.172 65.1622V65.1722L58.742 65.1622C57.712 65.1522 57.032 64.3422 57.212 63.3322L58.082 58.5422C58.122 58.3222 58.332 58.1522 58.552 58.1522H59.802C60.022 58.1522 60.162 58.3222 60.132 58.5422L59.302 63.0922C59.282 63.2222 59.372 63.3222 59.502 63.3222H62.262C62.392 63.3222 62.512 63.2222 62.542 63.0922L63.362 58.5422C63.402 58.3222 63.612 58.1522 63.832 58.1522H65.102ZM67.0514 65.1622C66.0214 65.1622 65.3414 64.3522 65.5314 63.3422L66.1414 59.9722C66.3314 58.9722 67.3114 58.1522 68.3314 58.1522H72.2014C72.4214 58.1522 72.5614 58.3322 72.5214 58.5422L72.3414 59.5822C72.3014 59.7922 72.0914 59.9622 71.8714 59.9622H68.5014C68.3714 59.9622 68.2514 60.0722 68.2214 60.2022L67.7014 63.1022C67.6714 63.2322 67.7614 63.3322 67.8914 63.3322H71.2614C71.4814 63.3322 71.6214 63.5122 71.5914 63.7222L71.3914 64.7822C71.3614 64.9922 71.1514 65.1622 70.9314 65.1622H67.0514ZM71.7459 65.0022C71.7059 64.9022 71.7259 64.7822 71.7959 64.6822L75.8459 58.5422C76.0559 58.2622 76.3159 58.1922 76.6759 58.1822C76.6759 58.1822 76.6759 58.1822 76.6859 58.1822C76.7759 58.1722 76.8859 58.1822 76.9959 58.1822C77.0159 58.1822 77.0359 58.1822 77.0559 58.1822C77.0959 58.1822 77.1259 58.1822 77.1759 58.1822C77.3159 58.1822 77.4759 58.1822 77.6659 58.1822C77.6659 58.1822 78.0159 58.1722 78.1459 58.5422L80.1459 64.6822C80.1759 64.7822 80.1559 64.9022 80.0859 65.0022C80.0159 65.1022 79.9159 65.1622 79.8059 65.1622H78.2059C78.0959 65.1622 78.0059 65.1022 77.9759 64.9922L77.7959 64.4122H74.4159L74.2859 64.6222L74.0159 64.9922C73.9459 65.1022 73.8159 65.1622 73.6959 65.1622H72.0059C71.8859 65.1622 71.7859 65.1022 71.7459 65.0022ZM76.7059 60.9222L75.5159 62.7422H77.2859L76.7059 60.9222ZM87.0255 58.1722C87.2455 58.1722 87.3955 58.3422 87.3555 58.5622L87.1755 59.5622C87.1355 59.7822 86.9255 59.9522 86.7055 59.9522H84.7755C84.7355 59.9522 84.6955 59.9922 84.6855 60.0322L83.8255 64.7822C83.7855 64.9922 83.5755 65.1622 83.3555 65.1622H82.0355C81.8255 65.1622 81.6755 64.9922 81.7155 64.7822L82.5755 60.0322C82.5855 59.9822 82.5555 59.9522 82.5055 59.9522H80.5755C80.3555 59.9522 80.2155 59.7822 80.2555 59.5622L80.4355 58.5622C80.4755 58.3422 80.6755 58.1722 80.8955 58.1722H87.0255ZM88.4455 58.1722H89.7655C89.9855 58.1722 90.1355 58.3422 90.0955 58.5622L88.9655 64.7822C88.9255 64.9922 88.7255 65.1622 88.5055 65.1622H87.1855C86.9655 65.1622 86.8155 64.9922 86.8555 64.7822L87.9855 58.5622C88.0255 58.3422 88.2255 58.1722 88.4455 58.1722ZM97.0784 58.1522C98.0984 58.1522 98.7884 58.9622 98.6084 59.9722L97.9984 63.3422C97.8084 64.3522 96.8384 65.1622 95.8084 65.1622H91.7684C90.7484 65.1622 90.0584 64.3522 90.2384 63.3422L90.8484 59.9722C91.0384 58.9622 92.0084 58.1522 93.0384 58.1522H97.0784ZM95.9184 63.1022L96.4484 60.1922C96.4684 60.0622 96.3784 59.9522 96.2484 59.9522H93.2084C93.0784 59.9522 92.9584 60.0622 92.9284 60.1922L92.4084 63.1022C92.3784 63.2322 92.4684 63.3322 92.5984 63.3322H95.6384C95.7684 63.3322 95.8984 63.2322 95.9184 63.1022ZM101.67 61.2422C101.62 61.1722 101.5 61.1922 101.49 61.2722L100.85 64.7822C100.81 64.9922 100.61 65.1622 100.39 65.1622H99.0803C98.8603 65.1622 98.7103 64.9922 98.7503 64.7822L99.8803 58.5622C99.9103 58.3422 100.12 58.1722 100.34 58.1722H102.01C102.13 58.1722 102.23 58.2222 102.29 58.3122L104.27 61.8322C104.32 61.9022 104.43 61.8822 104.45 61.8022L105.03 58.5622C105.07 58.3422 105.28 58.1722 105.5 58.1722H106.81C107.03 58.1722 107.17 58.3422 107.14 58.5622L106.01 64.7822C105.97 64.9922 105.77 65.1622 105.55 65.1622H104.1C103.98 65.1622 103.88 65.1122 103.82 65.0322L101.67 61.2422ZM119.683 59.9922L119.393 61.5822C119.213 62.5922 118.233 63.4022 117.203 63.4022L114.013 63.4122C113.963 63.4122 113.923 63.4422 113.913 63.4922L113.683 64.7822C113.643 64.9922 113.433 65.1622 113.223 65.1622H111.903C111.683 65.1622 111.533 64.9922 111.573 64.7822L112.703 58.5522C112.743 58.3422 112.943 58.1622 113.163 58.1622H118.153C119.183 58.1622 119.863 58.9822 119.683 59.9922ZM117.513 60.2622C117.553 60.0722 117.423 59.9122 117.223 59.9122H114.643C114.603 59.9122 114.553 59.9522 114.553 59.9922L114.263 61.5822C114.253 61.6222 114.283 61.6522 114.333 61.6522H116.913C117.103 61.6522 117.293 61.5022 117.323 61.3122L117.513 60.2622ZM120.788 58.5622C120.828 58.3422 121.028 58.1722 121.248 58.1722H122.568C122.788 58.1722 122.938 58.3422 122.898 58.5622L122.068 63.1022C122.048 63.2322 122.138 63.3322 122.268 63.3322H125.488C125.698 63.3322 125.848 63.5122 125.808 63.7222L125.618 64.7822C125.578 64.9922 125.368 65.1622 125.148 65.1622H119.988C119.768 65.1622 119.618 64.9922 119.658 64.7822L120.788 58.5622ZM125.74 65.0022C125.7 64.9022 125.72 64.7822 125.79 64.6822L129.84 58.5422C130.05 58.2622 130.31 58.1922 130.67 58.1822C130.67 58.1822 130.67 58.1822 130.68 58.1822C130.77 58.1722 130.88 58.1822 130.99 58.1822C131.01 58.1822 131.03 58.1822 131.05 58.1822C131.09 58.1822 131.12 58.1822 131.17 58.1822C131.31 58.1822 131.47 58.1822 131.66 58.1822C131.66 58.1822 132.01 58.1722 132.14 58.5422L134.14 64.6822C134.17 64.7822 134.15 64.9022 134.08 65.0022C134.01 65.1022 133.91 65.1622 133.8 65.1622H132.2C132.09 65.1622 132 65.1022 131.97 64.9922L131.79 64.4122H128.41L128.28 64.6222L128.01 64.9922C127.94 65.1022 127.81 65.1622 127.69 65.1622H126C125.88 65.1622 125.78 65.1022 125.74 65.0022ZM130.7 60.9222L129.51 62.7422H131.28L130.7 60.9222ZM141.02 58.1722C141.24 58.1722 141.39 58.3422 141.35 58.5622L141.17 59.5622C141.13 59.7822 140.92 59.9522 140.7 59.9522H138.77C138.73 59.9522 138.69 59.9922 138.68 60.0322L137.82 64.7822C137.78 64.9922 137.57 65.1622 137.35 65.1622H136.03C135.82 65.1622 135.67 64.9922 135.71 64.7822L136.57 60.0322C136.58 59.9822 136.55 59.9522 136.5 59.9522H134.57C134.35 59.9522 134.21 59.7822 134.25 59.5622L134.43 58.5622C134.47 58.3422 134.67 58.1722 134.89 58.1722H141.02ZM141.19 65.1622C140.97 65.1622 140.82 64.9922 140.86 64.7822L141.99 58.5622C142.03 58.3422 142.23 58.1722 142.45 58.1722H148.34C148.47 58.1722 148.55 58.2722 148.53 58.4022L148.29 59.7222C148.27 59.8522 148.14 59.9522 148.01 59.9522H143.92C143.88 59.9522 143.84 59.9922 143.83 60.0322L143.7 60.7522C143.69 60.7922 143.72 60.8322 143.77 60.8322H147.06C147.19 60.8322 147.27 60.9322 147.25 61.0622L147.03 62.2722C147.01 62.4022 146.88 62.5022 146.75 62.5022H143.46C143.42 62.5022 143.38 62.5422 143.37 62.5822L142.97 64.7822C142.93 64.9922 142.73 65.1622 142.51 65.1622H141.19ZM155.076 58.1522C156.096 58.1522 156.786 58.9622 156.606 59.9722L155.996 63.3422C155.806 64.3522 154.836 65.1622 153.806 65.1622H149.766C148.746 65.1622 148.056 64.3522 148.236 63.3422L148.846 59.9722C149.036 58.9622 150.006 58.1522 151.036 58.1522H155.076ZM153.916 63.1022L154.446 60.1922C154.466 60.0622 154.376 59.9522 154.246 59.9522H151.206C151.076 59.9522 150.956 60.0622 150.926 60.1922L150.406 63.1022C150.376 63.2322 150.466 63.3322 150.596 63.3322H153.636C153.766 63.3322 153.896 63.2322 153.916 63.1022ZM157.078 65.1722V65.1622C156.858 65.1622 156.708 64.9922 156.748 64.7822L157.878 58.5522C157.918 58.3422 158.118 58.1622 158.338 58.1622H163.328C164.358 58.1622 165.038 58.9822 164.858 59.9922L164.568 61.5822C164.448 62.2722 163.938 62.8722 163.308 63.1822C163.258 63.2022 163.238 63.2522 163.258 63.2922L164.078 64.7222C164.188 64.9122 164.058 65.1522 163.838 65.1522C163.148 65.1522 162.718 65.1722 162.438 65.1622C161.958 65.1722 161.798 65.1522 161.718 64.9822L160.958 63.5122C160.928 63.4422 160.858 63.4122 160.788 63.4122H159.188C159.138 63.4122 159.098 63.4422 159.098 63.4922L158.858 64.7822C158.818 64.9922 158.618 65.1722 158.398 65.1722H157.078ZM159.728 59.9922L159.438 61.5722C159.428 61.6222 159.458 61.6522 159.508 61.6522H162.088C162.278 61.6522 162.468 61.5022 162.498 61.3122L162.688 60.2622C162.728 60.0722 162.598 59.9122 162.398 59.9122H159.818C159.778 59.9122 159.738 59.9522 159.728 59.9922ZM166.6 58.1722H168.13C168.29 58.1722 168.41 58.2622 168.45 58.4022L169.64 62.7322C169.67 62.8122 169.78 62.8322 169.82 62.7622L172.73 58.4022C172.82 58.2622 172.98 58.1722 173.13 58.1722H174.66C174.88 58.1722 175.02 58.3522 174.98 58.5622L173.86 64.7822C173.82 64.9922 173.61 65.1622 173.4 65.1622H172.2C171.99 65.1622 171.84 64.9922 171.88 64.7822L172.33 62.2922L170.56 64.9422C170.47 65.0822 170.31 65.1622 170.16 65.1622H168.58C168.42 65.1622 168.3 65.0822 168.26 64.9422L167.44 62.3022L166.99 64.7822C166.96 64.9922 166.75 65.1622 166.53 65.1622H165.34C165.12 65.1622 164.97 64.9922 165.01 64.7822L166.14 58.5622C166.17 58.3522 166.38 58.1722 166.6 58.1722Z" fill="#07293E"/>
</svg>
